<?xml version="1.0" encoding="utf-8"?>
<svg xmlns="http://www.w3.org/2000/svg" viewBox="0 0 500 500" xmlns:bx="https://boxy-svg.com" width="500px" height="500px"><path stroke="rgb(255,0,0)" d="M 120.178 73.21 C 135.523 58.266 148.333 50.787 165.715 42.934 C 184.666 34.383 208.725 27.35 230.425 25.279 C 251.869 23.238 277.406 22.261 295.136 30.323 C 305.69 35.119 315.594 43.828 323.486 53.282 C 330.403 59.569 336.699 67.817 344.41 79.049 C 361.646 104.155 393.41 179.434 401.931 191.307 C 404.491 194.87 404.362 191.985 406.723 195.089 C 413.114 203.482 436.179 240.298 442.675 260.677 C 448.098 277.686 451.098 289.863 447.469 308.607 C 442.578 333.856 421.563 373.015 404.328 399.418 C 388.09 424.295 365.668 450.082 348.004 463.741 C 334.582 474.125 321.559 478.68 309.657 481.402 C 299.418 483.743 289.843 484.086 280.899 481.402 C 278.081 480.557 275.139 479.506 272.249 478.195 C 266.803 478.51 261.514 478.245 256.847 477.222 C 239.518 473.431 223.537 458.095 207.714 443.167 C 189.826 426.295 168.161 391.764 156.184 378.845 C 149.246 371.359 148.07 374.496 140.605 364.971 C 123.616 343.281 67.179 260.188 54.326 223.705 C 45.908 199.82 46.325 181.366 49.53 165.687 C 52.199 152.639 60.211 141.12 67.506 134.155 C 69.159 132.576 70.918 131.22 72.753 130.051 C 85.821 109.906 106.585 86.447 120.178 73.21 Z" style="stroke: rgb(129, 151, 57); fill: rgb(167, 139, 250); stroke-width: 0px; transform-box: fill-box; transform-origin: 50% 50%;"/><text style="font-family: Inter; font-size: 108.6px; font-style: italic; font-weight: 654; white-space: pre;" x="138.017" y="225.863" transform="matrix(5.064916, 0, 0, 3.501426, -624.023132, -415.735779)">B</text><defs><style bx:fonts="Inter">@import url(https://fonts.googleapis.com/css2?family=Inter%3Aital%2Cwght%400%2C100..900%3B1%2C100..900&amp;display=swap);</style><bx:export><bx:file format="svg"/><bx:file format="html" excluded="true"/><bx:file format="png" excluded="true"/></bx:export></defs></svg>